<?xml version="1.0" encoding="utf-8"?>
<!-- Generator: Adobe Illustrator 26.3.1, SVG Export Plug-In . SVG Version: 6.00 Build 0)  -->
<svg version="1.1" id="Livello_1" xmlns="http://www.w3.org/2000/svg" xmlns:xlink="http://www.w3.org/1999/xlink" x="0px" y="0px"
	 viewBox="0 0 1175.9 705.6" style="enable-background:new 0 0 1175.9 705.6;" xml:space="preserve">
<style type="text/css">
	.st0{fill:#002E62;}
	.st1{fill:#FDC42B;}
</style>
<path class="st0" d="M364.9,418.4l0-210.8c0-85,69.5-158,154.6-159c87.3-1.1,158.4,69.4,158.4,156.5v213.3h-54.7
	c-21.8,0-39.5-17.7-39.5-39.5v-183c0-34-26.6-62.7-60.6-63.6c-35.1-0.9-63.9,27.3-63.9,62.2v223.9H364.9z"/>
<path class="st0" d="M325.3,48.6v210.8c0,85-69.5,158-154.6,159C83.4,419.4,12.3,349,12.3,261.9V48.6H67c21.8,0,39.5,17.7,39.5,39.5
	l0,183c0,34,26.6,62.7,60.6,63.6c35.1,0.9,63.9-27.3,63.9-62.2V48.6H325.3z"/>
<g>
	<path class="st0" d="M157.9,515.7c-2-3.7-4.4-6.8-7.1-9.3c-2.7-2.5-5.4-4.5-8.1-6.1c-6.4-3.7-13.7-5.6-22-5.9
		c-8.4,0.3-15.8,2.2-22.2,5.9c-2.7,1.6-5.4,3.6-8,6.1c-0.7,0.6-1.3,1.3-2,2.1c-0.7-0.7-1.3-1.4-2-2.1c-2.7-2.5-5.4-4.5-8.1-6.1
		c-6.4-3.7-13.7-5.6-22-5.9c-8.4,0.3-15.8,2.2-22.2,5.9c-2.7,1.6-5.4,3.6-8,6.1c-2.6,2.5-5,5.6-7.1,9.3c-2.1,3.7-3.8,8.1-5,13.2
		c-1.2,5.1-1.9,11-1.9,17.8v49.6h23.9v-49.6c0-2.9,0.2-5.8,0.5-8.8c0.3-3,1.1-5.7,2.5-8.2c1.3-2.5,3.3-4.5,6-6.2
		c2.7-1.6,6.4-2.4,11.3-2.4c4.8,0,8.6,0.8,11.3,2.4c2.7,1.6,4.7,3.7,6,6.2c1.3,2.5,2.1,5.2,2.4,8.2c0.3,3,0.5,5.9,0.5,8.8v49.6h23.9
		v-49.6c0-2.9,0.2-5.8,0.5-8.8c0.3-3,1.1-5.7,2.5-8.2c1.3-2.5,3.3-4.5,6-6.2c2.7-1.6,6.4-2.4,11.3-2.4s8.6,0.8,11.3,2.4
		c2.7,1.6,4.7,3.7,6,6.2c1.3,2.5,2.1,5.2,2.4,8.2c0.3,3,0.5,5.9,0.5,8.8v38.1c0,6.4,5.2,11.5,11.5,11.5h12.4v-49.6
		c0-6.8-0.7-12.7-2-17.8C161.5,523.9,159.9,519.5,157.9,515.7z"/>
	<path class="st0" d="M264.9,515.7c-2.2-3.7-4.6-6.8-7.5-9.3c-2.8-2.5-5.7-4.5-8.5-6.1c-6.8-3.7-14.5-5.6-23.1-5.9
		c-8.8,0.3-16.5,2.2-23.3,5.9c-2.9,1.6-5.7,3.6-8.5,6.1c-2.8,2.5-5.3,5.6-7.4,9.3c-2.2,3.7-3.9,8.1-5.2,13.2c-1.3,5.1-2,11-2,17.8
		c0,6.8,0.7,12.7,2,17.8c1.3,5.1,3,9.5,5.2,13.1c2.2,3.7,4.6,6.7,7.4,9.1c2.8,2.4,5.7,4.4,8.5,6c6.8,3.5,14.6,5.4,23.3,5.5
		c8.6-0.1,16.3-2,23.1-5.5c2.9-1.6,5.7-3.6,8.5-6c2.8-2.4,5.3-5.5,7.5-9.1c2.2-3.7,3.9-8,5.3-13.1s2.1-11,2.1-17.8
		c0-6.8-0.7-12.7-2.1-17.8C268.8,523.9,267.1,519.5,264.9,515.7z M247.4,556.2c-0.5,3.4-1.6,6.6-3.1,9.5c-1.6,2.9-3.8,5.4-6.8,7.4
		c-2.9,2-6.8,2.9-11.7,2.9s-8.7-1-11.7-2.9c-2.9-2-5.2-4.4-6.8-7.4c-1.6-2.9-2.6-6.1-3.1-9.5c-0.5-3.4-0.8-6.5-0.8-9.4
		c0-2.9,0.3-6,0.8-9.4c0.5-3.4,1.6-6.6,3.1-9.5c1.6-2.9,3.8-5.4,6.8-7.4c2.9-2,6.8-2.9,11.7-2.9s8.7,1,11.7,2.9
		c2.9,2,5.2,4.4,6.8,7.4c1.6,2.9,2.6,6.1,3.1,9.5c0.5,3.4,0.8,6.5,0.8,9.4C248.1,549.7,247.9,552.8,247.4,556.2z"/>
	<path class="st0" d="M373.3,515.7c-2-3.7-4.3-6.8-6.9-9.3c-2.5-2.5-5.2-4.5-7.9-6.1c-6.3-3.7-13.5-5.6-21.6-5.9
		c-4,0.4-8,1.4-11.8,2.9c-3.3,1.4-6.6,3.6-10,6.6c-1.5,1.3-2.9,2.8-4.1,4.6v-33c0-6.4-5.2-11.5-11.5-11.5h-11.8v82.5
		c0,6.8,0.6,12.7,2,17.8c1.3,5.1,3,9.5,5.2,13.2c2.2,3.7,4.6,6.8,7.4,9.2c2.7,2.4,5.6,4.4,8.4,6c6.7,3.5,14.3,5.4,22.9,5.5
		c8.6-0.1,16.3-2,23.1-5.5c2.9-1.6,5.7-3.6,8.5-6c2.8-2.4,5.3-5.5,7.4-9.1c2.2-3.7,3.9-8,5.3-13.1c1.4-5.1,2.1-11,2.1-17.8
		c0-6.8-0.6-12.7-1.9-17.8C377,523.9,375.3,519.5,373.3,515.7z M355.2,556.2c-0.5,3.4-1.6,6.6-3.1,9.5c-1.6,2.9-3.8,5.4-6.8,7.4
		c-2.9,2-6.8,2.9-11.7,2.9c-4.8,0-8.7-1-11.7-2.9c-2.9-2-5.2-4.4-6.9-7.4c-1.6-2.9-2.7-6.1-3.2-9.5c-0.5-3.4-0.8-6.5-0.8-9.4
		c0-2.9,0.3-6,0.8-9.4c0.5-3.4,1.6-6.6,3.2-9.5c1.6-2.9,3.9-5.4,6.9-7.4c2.9-2,6.8-2.9,11.7-2.9c4.8,0,8.7,1,11.7,2.9
		c2.9,2,5.2,4.4,6.8,7.4c1.6,2.9,2.6,6.1,3.1,9.5c0.5,3.4,0.8,6.5,0.8,9.4C356,549.7,355.7,552.8,355.2,556.2z"/>
	<path class="st0" d="M408.1,497h-12.4v99.4h23.9v-87.9C419.7,502.2,414.5,497,408.1,497z"/>
	<path class="st0" d="M418.4,465.2c-0.7-0.7-1.9-1-3.5-1.1c-1.6-0.1-4-0.1-7.2-0.1c-3.1,0-5.5,0-7.2,0.1c-1.6,0.1-2.8,0.4-3.5,1.1
		c-0.7,0.7-1.1,1.7-1.2,3.1c-0.1,1.4-0.1,3.6-0.1,6.5c0,2.9,0,5,0.1,6.5c0.1,1.4,0.5,2.5,1.2,3.1c0.7,0.7,1.9,1,3.5,1.1
		c1.6,0.1,4,0.1,7.2,0.1c3.1,0,5.5,0,7.2-0.1c1.6-0.1,2.8-0.4,3.5-1.1c0.7-0.7,1.1-1.7,1.2-3.1c0.1-1.4,0.1-3.6,0.1-6.5
		c0-2.9,0-5-0.1-6.5C419.5,466.9,419.1,465.9,418.4,465.2z"/>
	<path class="st0" d="M448.7,464.1h-12.4v132.3h23.9V475.6C460.3,469.2,455.1,464.1,448.7,464.1z"/>
	<path class="st0" d="M489.3,497h-12.4v99.4h23.9v-87.9C500.8,502.2,495.7,497,489.3,497z"/>
	<path class="st0" d="M499.6,465.2c-0.7-0.7-1.9-1-3.5-1.1c-1.6-0.1-4-0.1-7.2-0.1c-3.1,0-5.5,0-7.2,0.1c-1.6,0.1-2.8,0.4-3.5,1.1
		c-0.7,0.7-1.1,1.7-1.2,3.1c-0.1,1.4-0.1,3.6-0.1,6.5c0,2.9,0,5,0.1,6.5c0.1,1.4,0.5,2.5,1.2,3.1c0.7,0.7,1.9,1,3.5,1.1
		c1.6,0.1,4,0.1,7.2,0.1c3.1,0,5.5,0,7.2-0.1c1.6-0.1,2.8-0.4,3.5-1.1c0.7-0.7,1.1-1.7,1.2-3.1c0.1-1.4,0.1-3.6,0.1-6.5
		c0-2.9,0-5-0.1-6.5C500.7,466.9,500.3,465.9,499.6,465.2z"/>
	<path class="st0" d="M547.2,571.3c-1.6-0.9-2.9-1.9-3.8-2.9c-1-1.3-1.8-2.7-2.2-4.3v-43.7h11c6.4,0,11.5-5.2,11.5-11.5V497h-22.5
		v-21.4c0-6.4-5.2-11.5-11.5-11.5h-12.4v103.3c0,6.8,1.4,12.1,4.2,16c2.8,3.9,5.9,6.8,9.3,8.7c4,2.4,8.6,3.8,13.7,4.3h23.9v-23.7
		h-14.9C551,572.7,548.8,572.2,547.2,571.3z"/>
	<path class="st0" d="M652.2,497l-23.1,76.9L605.9,497h-24.1l32,99.2c0.7,2,0.8,3.7,0.4,5.1c-0.4,1.3-1.3,2.5-2.7,3.5
		c-1.4,1-4,1.6-7.8,1.6h-20v22.9h31c3.9-0.5,7.6-1.5,11-2.9c3-1.3,5.9-3.2,8.8-5.8c2.9-2.6,5-6.1,6.5-10.7L676.3,497H652.2z"/>
</g>
<g>
	<path class="st0" d="M48.7,656.5c-1.5-1.8-3.1-3.3-4.8-4.2c-1.7-1-3.4-1.7-4.9-2.2c-1.5-0.5-2.9-0.7-4-0.8c-1.1-0.1-1.8-0.1-2-0.1
		c-0.2,0-0.9,0-2,0.1c-1.1,0.1-2.4,0.3-4,0.8s-3.2,1.2-4.9,2.2c-1.7,1-3.3,2.4-4.8,4.2c-1.5,1.8-2.7,4.2-3.6,7
		c-1,2.8-1.4,6.3-1.4,10.4v23.3h11.3v-23.3c0-1.4,0.1-2.7,0.4-4.2c0.2-1.4,0.7-2.7,1.4-3.9c0.7-1.2,1.6-2.1,2.9-2.9
		c1.2-0.8,2.9-1.1,4.9-1.1c2,0,3.7,0.4,4.9,1.1c1.2,0.8,2.2,1.7,2.9,2.9c0.7,1.2,1.1,2.5,1.4,3.9c0.2,1.4,0.4,2.8,0.4,4.2v23.3h11.3
		v-23.3c0-4.1-0.5-7.6-1.4-10.4C51.4,660.6,50.2,658.3,48.7,656.5z"/>
	<path class="st0" d="M102.8,667.8c-0.4-2.4-1-4.5-1.8-6.3c-0.8-1.8-1.8-3.4-2.9-4.7c-1.1-1.3-2.2-2.4-3.5-3.3
		c-1.3-0.9-2.5-1.6-3.7-2.2c-3-1.3-6.1-2-9.5-2.1c-4.1,0.1-7.8,1-11,2.8c-1.4,0.7-2.7,1.7-4,2.9c-1.3,1.2-2.5,2.6-3.5,4.4
		c-1,1.8-1.8,3.8-2.4,6.2c-0.6,2.4-0.9,5.2-0.9,8.4c0,3.2,0.3,6,0.9,8.4c0.6,2.4,1.4,4.5,2.4,6.2c1,1.7,2.2,3.1,3.5,4.3
		c1.3,1.1,2.7,2.1,4,2.8c3.2,1.7,6.9,2.5,11,2.6c3.1,0,6.1-0.6,8.9-1.7c1.2-0.5,2.4-1.1,3.6-1.9c1.2-0.8,2.4-1.7,3.5-2.9
		c1.1-1.2,2.1-2.6,3-4.2c0.9-1.6,1.6-3.5,2.1-5.6h-12c-0.7,1.6-1.7,3-3.1,4.2c-1.4,1.2-3.4,1.8-5.9,1.8c-2.5,0-4.5-0.6-5.9-1.8
		c-1.4-1.2-2.5-2.6-3.1-4.2c-0.4-1-0.7-2.1-0.9-3.2c-0.2-1.1-0.3-2.1-0.5-3.2h32.3v-1.7c0-1.1,0-2.2-0.1-3.1
		C103,669.7,102.9,668.7,102.8,667.8z M71.6,667.8c0.2-1,0.6-2,1.1-3c0.5-1,1.1-1.9,1.9-2.7c0.8-0.8,1.8-1.4,2.9-1.9
		c1.1-0.5,2.4-0.7,3.9-0.7c1.5,0,2.8,0.2,3.9,0.7c1.1,0.5,2.1,1.1,2.9,1.9c0.8,0.8,1.4,1.7,1.9,2.7c0.5,1,0.8,2,1.2,3H71.6z"/>
	<path class="st0" d="M123.3,685.3c-0.8-0.4-1.4-0.9-1.8-1.4c-0.5-0.6-0.8-1.3-1-2v-20.6h10.6v-11h-10.6v-12.5h-11.3v45.7
		c0,3.2,0.7,5.7,2,7.5c1.3,1.8,2.8,3.2,4.4,4.1c1.9,1.1,4.1,1.8,6.5,2h11.3V686h-7C125.1,686,124.1,685.8,123.3,685.3z"/>
	<polygon class="st0" points="182.9,685.3 175.3,650.4 174.6,650.4 164.7,650.4 164,650.4 156.4,685.3 148.8,650.4 137.5,650.4 
		148.8,697.2 156.4,697.2 164,697.2 169.6,672.1 175.3,697.2 182.9,697.2 190.4,697.2 201.8,650.4 190.4,650.4 	"/>
	<path class="st0" d="M246.5,659.2c-1-1.8-2.2-3.2-3.5-4.4c-1.3-1.2-2.7-2.1-4-2.9c-3.2-1.7-6.8-2.6-10.9-2.8c-4.1,0.1-7.8,1-11,2.8
		c-1.4,0.7-2.7,1.7-4,2.9c-1.3,1.2-2.5,2.6-3.5,4.4c-1,1.8-1.8,3.8-2.4,6.2c-0.6,2.4-0.9,5.2-0.9,8.4c0,3.2,0.3,6,0.9,8.4
		c0.6,2.4,1.4,4.5,2.4,6.2c1,1.7,2.2,3.1,3.5,4.3c1.3,1.1,2.7,2.1,4,2.8c3.2,1.7,6.9,2.5,11,2.6c4.1-0.1,7.7-0.9,10.9-2.6
		c1.4-0.7,2.7-1.7,4-2.8c1.3-1.1,2.5-2.6,3.5-4.3c1-1.7,1.8-3.8,2.5-6.2c0.6-2.4,1-5.2,1-8.4c0-3.2-0.3-6-1-8.4
		C248.3,663,247.5,660.9,246.5,659.2z M238.2,678.2c-0.2,1.6-0.7,3.1-1.5,4.5s-1.8,2.5-3.2,3.5c-1.4,0.9-3.2,1.4-5.5,1.4
		c-2.3,0-4.1-0.5-5.5-1.4c-1.4-0.9-2.4-2.1-3.2-3.5s-1.2-2.9-1.5-4.5c-0.2-1.6-0.4-3.1-0.4-4.4c0-1.4,0.1-2.8,0.4-4.4
		c0.2-1.6,0.7-3.1,1.5-4.5c0.7-1.4,1.8-2.5,3.2-3.5c1.4-0.9,3.2-1.4,5.5-1.4c2.3,0,4.1,0.5,5.5,1.4c1.4,0.9,2.4,2.1,3.2,3.5
		c0.7,1.4,1.2,2.9,1.5,4.5c0.2,1.6,0.4,3.1,0.4,4.4C238.6,675.2,238.5,676.6,238.2,678.2z"/>
	<path class="st0" d="M261.9,652.4c-1.6,0.9-3.1,2.3-4.4,4.1c-1.4,1.8-2,4.3-2,7.5v33.1h11.4v-31.6c0.2-0.7,0.5-1.4,1-2
		c0.4-0.5,1-1,1.8-1.4c0.8-0.4,1.8-0.6,3-0.6h8.7v-11.2h-12.9C266,650.6,263.8,651.3,261.9,652.4z"/>
	<polygon class="st0" points="310.1,669.8 324.3,650.4 311.9,650.4 298.1,669 298.1,634.9 286.8,634.9 286.8,697.2 298.1,697.2 
		298.1,685.6 303.7,678.3 317.5,697.2 329.9,697.2 	"/>
</g>
<path class="st1" d="M937.3,593.2c0,0-225.1-217.7-225.1-359.7C712.2,109.2,813,8.4,937.3,8.4h0.5c124.3,0,225.1,100.8,225.1,225.1
	c0,142-225.1,359.7-225.1,359.7H937.3z"/>
<path class="st0" d="M937.8,48.6c-102.1,0-184.9,82.8-184.9,184.9c0,102.1,82.8,184.9,184.9,184.9s184.9-82.8,184.9-184.9
	C1122.8,131.4,1040,48.6,937.8,48.6z M937.8,334.8c-55.9,0-101.3-45.3-101.3-101.3c0-55.9,45.3-101.3,101.3-101.3
	c55.9,0,101.3,45.3,101.3,101.3C1039.1,289.4,993.8,334.8,937.8,334.8z"/>
</svg>
